<?xml version="1.0" encoding="utf-8"?>
<!-- Generator: Adobe Illustrator 16.0.4, SVG Export Plug-In . SVG Version: 6.00 Build 0)  -->
<!DOCTYPE svg PUBLIC "-//W3C//DTD SVG 1.1//EN" "http://www.w3.org/Graphics/SVG/1.1/DTD/svg11.dtd">
<svg version="1.1" id="Layer_1" xmlns="http://www.w3.org/2000/svg" xmlns:xlink="http://www.w3.org/1999/xlink" x="0px" y="0px"
	 width="500px" height="500px" viewBox="0 0 500 500" enable-background="new 0 0 500 500" xml:space="preserve">
<path fill="#FFFFFF" d="M250,0C111.93,0,0,111.929,0,250.001C0,388.071,111.929,500,250,500c138.073,0,250-111.93,250-249.999
	C500,111.929,388.071,0,250,0z M421.52,167.07c-2.689,2.79-5.64,4.18-8.869,4.18c-2.24,0-6.03-1.49-11.351-4.47
	s-10.08-4.47-14.28-4.47c-7.619,0-15.649,2.71-24.1,8.13s-17.79,13.99-28.05,25.71v60.64h14.5c3.81,0,6.62,0.81,8.43,2.42
	c1.8,1.61,2.71,4.18,2.71,7.69c0,4.01-0.859,6.77-2.569,8.279c-1.71,1.511-4.86,2.271-9.44,2.271h-51.949v93.104
	c0,22.364-4.737,38.503-14.209,48.413c-9.473,9.913-24.756,14.868-45.849,14.868c-9.181,0-17.921-1.051-26.221-3.149
	c-8.302-2.099-16.553-5.347-24.756-9.741c-3.419-1.854-5.665-3.685-6.738-5.493c-1.076-1.806-1.611-5.102-1.611-9.888V371.14
	c0-6.834,0.707-11.107,2.124-12.817c1.415-1.708,3.882-2.563,7.397-2.563c2.344,0,4.344,0.465,6.006,1.392
	c1.659,0.929,2.879,2.271,3.662,4.028c0.389,0.978,0.682,2.149,0.879,3.516c0.194,1.369,0.293,3.809,0.293,7.324v1.465
	c0,3.223,0.146,6.178,0.439,8.862c0.293,2.688,0.732,5.347,1.318,7.983c2.147,7.716,6.395,13.795,12.744,18.237
	c6.347,4.445,14.012,6.665,22.998,6.665c13.476,0,23.241-3.783,29.296-11.353c6.055-7.566,9.082-19.896,9.082-36.987v-89.442H213.94
	c-5.665,0-9.521-0.78-11.572-2.344c-2.051-1.561-3.076-4.296-3.076-8.203c0-3.809,1.22-6.445,3.662-7.91
	c2.44-1.465,7.127-2.197,14.062-2.197h6.299l-3.076-125.977l-29.004,84.229c-1.465,4.102-3.273,6.935-5.42,8.496
	c-2.149,1.563-5.372,2.344-9.668,2.344c-4.102,0-7.228-0.806-9.375-2.417c-2.149-1.611-3.907-4.417-5.273-8.423l-29.443-84.229
	l-2.637,125.977h9.814c5.761,0,9.814,0.783,12.158,2.344c2.344,1.563,3.516,4.152,3.516,7.764c0,3.907-1.025,6.643-3.076,8.203
	c-2.051,1.563-5.958,2.344-11.719,2.344H99.097c-3.419,0-5.983-0.879-7.69-2.637c-1.71-1.758-2.563-4.395-2.563-7.91
	c0-3.904,1.073-6.566,3.223-7.983c2.147-1.414,6.395-2.124,12.744-2.124h3.223l4.248-133.301h-2.344
	c-5.372,0-9.082-0.707-11.133-2.124c-2.051-1.415-3.076-3.978-3.076-7.69c0-3.223,0.829-5.688,2.49-7.397
	c1.659-1.708,4.051-2.563,7.178-2.563h24.023c4.491,0,7.933,0.783,10.327,2.344c2.392,1.563,4.223,4.102,5.493,7.617l32.08,91.699
	l31.494-91.699c1.366-3.516,3.246-6.054,5.64-7.617c2.392-1.561,5.834-2.344,10.327-2.344h24.023c3.124,0,5.493,0.856,7.104,2.563
	c1.611,1.71,2.417,4.175,2.417,7.397c0,3.712-1.003,6.276-3.003,7.69c-2.003,1.417-5.689,2.124-11.06,2.124h-2.344l4.102,133.301
	l67.029-0.005V162.9h-9.97c-9.47,0-15.38-0.76-17.72-2.27c-2.341-1.51-3.521-4.27-3.521-8.28c0-3.42,0.95-5.98,2.86-7.69
	c1.899-1.71,4.81-2.56,8.72-2.56h33.39c2.641,0,4.641,0.51,6.011,1.54c1.369,1.02,2.05,2.51,2.05,4.46v24.91
	c9.28-11.62,18.939-20.27,29.01-25.93c10.05-5.66,20.89-8.5,32.51-8.5c8.69,0,15.73,1.76,21.101,5.28
	c5.37,3.51,8.06,8.05,8.06,13.62C425.55,161.09,424.2,164.29,421.52,167.07z"/>
</svg>
